<?xml version="1.0" encoding="UTF-8" standalone="no"?>
<!DOCTYPE svg PUBLIC "-//W3C//DTD SVG 1.1//EN"
 "http://www.w3.org/Graphics/SVG/1.1/DTD/svg11.dtd">
<!-- Generated by graphviz version 2.38.0 (20140413.2041)
 -->
<!-- Title: Tree Pages: 1 -->
<svg width="1023pt" height="477pt"
 viewBox="0.00 0.00 1023.00 477.00" xmlns="http://www.w3.org/2000/svg" xmlns:xlink="http://www.w3.org/1999/xlink">
<g id="graph0" class="graph" transform="scale(1 1) rotate(0) translate(4 473)">
<title>Tree</title>
<polygon fill="white" stroke="none" points="-4,4 -4,-473 1019,-473 1019,4 -4,4"/>
<!-- 0 -->
<g id="node1" class="node"><title>0</title>
<polygon fill="#399de5" fill-opacity="0.403922" stroke="black" points="631,-469 486,-469 486,-401 631,-401 631,-469"/>
<text text-anchor="middle" x="558.5" y="-453.8" font-family="Times,serif" font-size="14.00">worst radius &lt;= 16.795</text>
<text text-anchor="middle" x="558.5" y="-438.8" font-family="Times,serif" font-size="14.00">samples = 426</text>
<text text-anchor="middle" x="558.5" y="-423.8" font-family="Times,serif" font-size="14.00">value = [159, 267]</text>
<text text-anchor="middle" x="558.5" y="-408.8" font-family="Times,serif" font-size="14.00">class = benign</text>
</g>
<!-- 1 -->
<g id="node2" class="node"><title>1</title>
<polygon fill="#399de5" fill-opacity="0.901961" stroke="black" points="556.5,-365 370.5,-365 370.5,-297 556.5,-297 556.5,-365"/>
<text text-anchor="middle" x="463.5" y="-349.8" font-family="Times,serif" font-size="14.00">worst concave points &lt;= 0.136</text>
<text text-anchor="middle" x="463.5" y="-334.8" font-family="Times,serif" font-size="14.00">samples = 284</text>
<text text-anchor="middle" x="463.5" y="-319.8" font-family="Times,serif" font-size="14.00">value = [25, 259]</text>
<text text-anchor="middle" x="463.5" y="-304.8" font-family="Times,serif" font-size="14.00">class = benign</text>
</g>
<!-- 0&#45;&gt;1 -->
<g id="edge1" class="edge"><title>0&#45;&gt;1</title>
<path fill="none" stroke="black" d="M527.656,-400.884C519.277,-391.887 510.106,-382.041 501.387,-372.678"/>
<polygon fill="black" stroke="black" points="503.891,-370.232 494.514,-365.299 498.768,-375.003 503.891,-370.232"/>
<text text-anchor="middle" x="493.626" y="-386.584" font-family="Times,serif" font-size="14.00">True</text>
</g>
<!-- 14 -->
<g id="node15" class="node"><title>14</title>
<polygon fill="#e58139" fill-opacity="0.941176" stroke="black" points="724,-365 585,-365 585,-297 724,-297 724,-365"/>
<text text-anchor="middle" x="654.5" y="-349.8" font-family="Times,serif" font-size="14.00">texture error &lt;= 0.473</text>
<text text-anchor="middle" x="654.5" y="-334.8" font-family="Times,serif" font-size="14.00">samples = 142</text>
<text text-anchor="middle" x="654.5" y="-319.8" font-family="Times,serif" font-size="14.00">value = [134, 8]</text>
<text text-anchor="middle" x="654.5" y="-304.8" font-family="Times,serif" font-size="14.00">class = malignant</text>
</g>
<!-- 0&#45;&gt;14 -->
<g id="edge14" class="edge"><title>0&#45;&gt;14</title>
<path fill="none" stroke="black" d="M589.668,-400.884C598.136,-391.887 607.403,-382.041 616.215,-372.678"/>
<polygon fill="black" stroke="black" points="618.854,-374.98 623.159,-365.299 613.757,-370.183 618.854,-374.98"/>
<text text-anchor="middle" x="623.917" y="-386.588" font-family="Times,serif" font-size="14.00">False</text>
</g>
<!-- 2 -->
<g id="node3" class="node"><title>2</title>
<polygon fill="#399de5" fill-opacity="0.984314" stroke="black" points="351.5,-261 217.5,-261 217.5,-193 351.5,-193 351.5,-261"/>
<text text-anchor="middle" x="284.5" y="-245.8" font-family="Times,serif" font-size="14.00">radius error &lt;= 1.048</text>
<text text-anchor="middle" x="284.5" y="-230.8" font-family="Times,serif" font-size="14.00">samples = 252</text>
<text text-anchor="middle" x="284.5" y="-215.8" font-family="Times,serif" font-size="14.00">value = [4, 248]</text>
<text text-anchor="middle" x="284.5" y="-200.8" font-family="Times,serif" font-size="14.00">class = benign</text>
</g>
<!-- 1&#45;&gt;2 -->
<g id="edge2" class="edge"><title>1&#45;&gt;2</title>
<path fill="none" stroke="black" d="M405.384,-296.884C388.258,-287.125 369.378,-276.366 351.731,-266.31"/>
<polygon fill="black" stroke="black" points="353.052,-263.035 342.631,-261.125 349.586,-269.117 353.052,-263.035"/>
</g>
<!-- 7 -->
<g id="node8" class="node"><title>7</title>
<polygon fill="#e58139" fill-opacity="0.474510" stroke="black" points="535,-261 392,-261 392,-193 535,-193 535,-261"/>
<text text-anchor="middle" x="463.5" y="-245.8" font-family="Times,serif" font-size="14.00">worst texture &lt;= 25.62</text>
<text text-anchor="middle" x="463.5" y="-230.8" font-family="Times,serif" font-size="14.00">samples = 32</text>
<text text-anchor="middle" x="463.5" y="-215.8" font-family="Times,serif" font-size="14.00">value = [21, 11]</text>
<text text-anchor="middle" x="463.5" y="-200.8" font-family="Times,serif" font-size="14.00">class = malignant</text>
</g>
<!-- 1&#45;&gt;7 -->
<g id="edge7" class="edge"><title>1&#45;&gt;7</title>
<path fill="none" stroke="black" d="M463.5,-296.884C463.5,-288.778 463.5,-279.982 463.5,-271.472"/>
<polygon fill="black" stroke="black" points="467,-271.299 463.5,-261.299 460,-271.299 467,-271.299"/>
</g>
<!-- 3 -->
<g id="node4" class="node"><title>3</title>
<polygon fill="#399de5" fill-opacity="0.988235" stroke="black" points="210,-157 45,-157 45,-89 210,-89 210,-157"/>
<text text-anchor="middle" x="127.5" y="-141.8" font-family="Times,serif" font-size="14.00">smoothness error &lt;= 0.003</text>
<text text-anchor="middle" x="127.5" y="-126.8" font-family="Times,serif" font-size="14.00">samples = 251</text>
<text text-anchor="middle" x="127.5" y="-111.8" font-family="Times,serif" font-size="14.00">value = [3, 248]</text>
<text text-anchor="middle" x="127.5" y="-96.8" font-family="Times,serif" font-size="14.00">class = benign</text>
</g>
<!-- 2&#45;&gt;3 -->
<g id="edge3" class="edge"><title>2&#45;&gt;3</title>
<path fill="none" stroke="black" d="M233.527,-192.884C218.644,-183.214 202.25,-172.563 186.894,-162.587"/>
<polygon fill="black" stroke="black" points="188.779,-159.638 178.486,-157.125 184.965,-165.508 188.779,-159.638"/>
</g>
<!-- 6 -->
<g id="node7" class="node"><title>6</title>
<polygon fill="#e58139" stroke="black" points="341,-149.5 228,-149.5 228,-96.5 341,-96.5 341,-149.5"/>
<text text-anchor="middle" x="284.5" y="-134.3" font-family="Times,serif" font-size="14.00">samples = 1</text>
<text text-anchor="middle" x="284.5" y="-119.3" font-family="Times,serif" font-size="14.00">value = [1, 0]</text>
<text text-anchor="middle" x="284.5" y="-104.3" font-family="Times,serif" font-size="14.00">class = malignant</text>
</g>
<!-- 2&#45;&gt;6 -->
<g id="edge6" class="edge"><title>2&#45;&gt;6</title>
<path fill="none" stroke="black" d="M284.5,-192.884C284.5,-182.326 284.5,-170.597 284.5,-159.854"/>
<polygon fill="black" stroke="black" points="288,-159.52 284.5,-149.52 281,-159.52 288,-159.52"/>
</g>
<!-- 4 -->
<g id="node5" class="node"><title>4</title>
<polygon fill="#399de5" fill-opacity="0.666667" stroke="black" points="95,-53 0,-53 0,-0 95,-0 95,-53"/>
<text text-anchor="middle" x="47.5" y="-37.8" font-family="Times,serif" font-size="14.00">samples = 4</text>
<text text-anchor="middle" x="47.5" y="-22.8" font-family="Times,serif" font-size="14.00">value = [1, 3]</text>
<text text-anchor="middle" x="47.5" y="-7.8" font-family="Times,serif" font-size="14.00">class = benign</text>
</g>
<!-- 3&#45;&gt;4 -->
<g id="edge4" class="edge"><title>3&#45;&gt;4</title>
<path fill="none" stroke="black" d="M99.5199,-88.9485C91.853,-79.892 83.5366,-70.0682 75.8492,-60.9875"/>
<polygon fill="black" stroke="black" points="78.4203,-58.6076 69.2877,-53.2367 73.0776,-63.1305 78.4203,-58.6076"/>
</g>
<!-- 5 -->
<g id="node6" class="node"><title>5</title>
<polygon fill="#399de5" fill-opacity="0.992157" stroke="black" points="218,-53 113,-53 113,-0 218,-0 218,-53"/>
<text text-anchor="middle" x="165.5" y="-37.8" font-family="Times,serif" font-size="14.00">samples = 247</text>
<text text-anchor="middle" x="165.5" y="-22.8" font-family="Times,serif" font-size="14.00">value = [2, 245]</text>
<text text-anchor="middle" x="165.5" y="-7.8" font-family="Times,serif" font-size="14.00">class = benign</text>
</g>
<!-- 3&#45;&gt;5 -->
<g id="edge5" class="edge"><title>3&#45;&gt;5</title>
<path fill="none" stroke="black" d="M140.791,-88.9485C144.212,-80.4408 147.905,-71.2562 151.367,-62.6464"/>
<polygon fill="black" stroke="black" points="154.667,-63.8205 155.151,-53.2367 148.173,-61.2089 154.667,-63.8205"/>
</g>
<!-- 8 -->
<g id="node9" class="node"><title>8</title>
<polygon fill="#399de5" fill-opacity="0.666667" stroke="black" points="528,-157 359,-157 359,-89 528,-89 528,-157"/>
<text text-anchor="middle" x="443.5" y="-141.8" font-family="Times,serif" font-size="14.00">worst smoothness &lt;= 0.179</text>
<text text-anchor="middle" x="443.5" y="-126.8" font-family="Times,serif" font-size="14.00">samples = 12</text>
<text text-anchor="middle" x="443.5" y="-111.8" font-family="Times,serif" font-size="14.00">value = [3, 9]</text>
<text text-anchor="middle" x="443.5" y="-96.8" font-family="Times,serif" font-size="14.00">class = benign</text>
</g>
<!-- 7&#45;&gt;8 -->
<g id="edge8" class="edge"><title>7&#45;&gt;8</title>
<path fill="none" stroke="black" d="M457.007,-192.884C455.4,-184.689 453.655,-175.789 451.969,-167.192"/>
<polygon fill="black" stroke="black" points="455.388,-166.439 450.029,-157.299 448.519,-167.786 455.388,-166.439"/>
</g>
<!-- 11 -->
<g id="node12" class="node"><title>11</title>
<polygon fill="#e58139" fill-opacity="0.890196" stroke="black" points="707,-157 546,-157 546,-89 707,-89 707,-157"/>
<text text-anchor="middle" x="626.5" y="-141.8" font-family="Times,serif" font-size="14.00">worst symmetry &lt;= 0.268</text>
<text text-anchor="middle" x="626.5" y="-126.8" font-family="Times,serif" font-size="14.00">samples = 20</text>
<text text-anchor="middle" x="626.5" y="-111.8" font-family="Times,serif" font-size="14.00">value = [18, 2]</text>
<text text-anchor="middle" x="626.5" y="-96.8" font-family="Times,serif" font-size="14.00">class = malignant</text>
</g>
<!-- 7&#45;&gt;11 -->
<g id="edge11" class="edge"><title>7&#45;&gt;11</title>
<path fill="none" stroke="black" d="M516.421,-192.884C531.873,-183.214 548.894,-172.563 564.836,-162.587"/>
<polygon fill="black" stroke="black" points="566.945,-165.396 573.565,-157.125 563.232,-159.462 566.945,-165.396"/>
</g>
<!-- 9 -->
<g id="node10" class="node"><title>9</title>
<polygon fill="#399de5" fill-opacity="0.890196" stroke="black" points="369,-53 274,-53 274,-0 369,-0 369,-53"/>
<text text-anchor="middle" x="321.5" y="-37.8" font-family="Times,serif" font-size="14.00">samples = 10</text>
<text text-anchor="middle" x="321.5" y="-22.8" font-family="Times,serif" font-size="14.00">value = [1, 9]</text>
<text text-anchor="middle" x="321.5" y="-7.8" font-family="Times,serif" font-size="14.00">class = benign</text>
</g>
<!-- 8&#45;&gt;9 -->
<g id="edge9" class="edge"><title>8&#45;&gt;9</title>
<path fill="none" stroke="black" d="M400.83,-88.9485C388.548,-79.4346 375.172,-69.074 362.964,-59.6175"/>
<polygon fill="black" stroke="black" points="364.775,-56.5934 354.726,-53.2367 360.489,-62.1274 364.775,-56.5934"/>
</g>
<!-- 10 -->
<g id="node11" class="node"><title>10</title>
<polygon fill="#e58139" stroke="black" points="500,-53 387,-53 387,-0 500,-0 500,-53"/>
<text text-anchor="middle" x="443.5" y="-37.8" font-family="Times,serif" font-size="14.00">samples = 2</text>
<text text-anchor="middle" x="443.5" y="-22.8" font-family="Times,serif" font-size="14.00">value = [2, 0]</text>
<text text-anchor="middle" x="443.5" y="-7.8" font-family="Times,serif" font-size="14.00">class = malignant</text>
</g>
<!-- 8&#45;&gt;10 -->
<g id="edge10" class="edge"><title>8&#45;&gt;10</title>
<path fill="none" stroke="black" d="M443.5,-88.9485C443.5,-80.7153 443.5,-71.848 443.5,-63.4814"/>
<polygon fill="black" stroke="black" points="447,-63.2367 443.5,-53.2367 440,-63.2367 447,-63.2367"/>
</g>
<!-- 12 -->
<g id="node13" class="node"><title>12</title>
<polygon fill="#399de5" fill-opacity="0.498039" stroke="black" points="613,-53 518,-53 518,-0 613,-0 613,-53"/>
<text text-anchor="middle" x="565.5" y="-37.8" font-family="Times,serif" font-size="14.00">samples = 3</text>
<text text-anchor="middle" x="565.5" y="-22.8" font-family="Times,serif" font-size="14.00">value = [1, 2]</text>
<text text-anchor="middle" x="565.5" y="-7.8" font-family="Times,serif" font-size="14.00">class = benign</text>
</g>
<!-- 11&#45;&gt;12 -->
<g id="edge12" class="edge"><title>11&#45;&gt;12</title>
<path fill="none" stroke="black" d="M605.165,-88.9485C599.496,-80.1664 593.362,-70.6629 587.65,-61.815"/>
<polygon fill="black" stroke="black" points="590.477,-59.7402 582.113,-53.2367 584.596,-63.5365 590.477,-59.7402"/>
</g>
<!-- 13 -->
<g id="node14" class="node"><title>13</title>
<polygon fill="#e58139" stroke="black" points="744,-53 631,-53 631,-0 744,-0 744,-53"/>
<text text-anchor="middle" x="687.5" y="-37.8" font-family="Times,serif" font-size="14.00">samples = 17</text>
<text text-anchor="middle" x="687.5" y="-22.8" font-family="Times,serif" font-size="14.00">value = [17, 0]</text>
<text text-anchor="middle" x="687.5" y="-7.8" font-family="Times,serif" font-size="14.00">class = malignant</text>
</g>
<!-- 11&#45;&gt;13 -->
<g id="edge13" class="edge"><title>11&#45;&gt;13</title>
<path fill="none" stroke="black" d="M647.835,-88.9485C653.504,-80.1664 659.638,-70.6629 665.35,-61.815"/>
<polygon fill="black" stroke="black" points="668.404,-63.5365 670.887,-53.2367 662.523,-59.7402 668.404,-63.5365"/>
</g>
<!-- 15 -->
<g id="node16" class="node"><title>15</title>
<polygon fill="#399de5" stroke="black" points="702,-253.5 607,-253.5 607,-200.5 702,-200.5 702,-253.5"/>
<text text-anchor="middle" x="654.5" y="-238.3" font-family="Times,serif" font-size="14.00">samples = 5</text>
<text text-anchor="middle" x="654.5" y="-223.3" font-family="Times,serif" font-size="14.00">value = [0, 5]</text>
<text text-anchor="middle" x="654.5" y="-208.3" font-family="Times,serif" font-size="14.00">class = benign</text>
</g>
<!-- 14&#45;&gt;15 -->
<g id="edge15" class="edge"><title>14&#45;&gt;15</title>
<path fill="none" stroke="black" d="M654.5,-296.884C654.5,-286.326 654.5,-274.597 654.5,-263.854"/>
<polygon fill="black" stroke="black" points="658,-263.52 654.5,-253.52 651,-263.52 658,-263.52"/>
</g>
<!-- 16 -->
<g id="node17" class="node"><title>16</title>
<polygon fill="#e58139" fill-opacity="0.976471" stroke="black" points="888.5,-261 730.5,-261 730.5,-193 888.5,-193 888.5,-261"/>
<text text-anchor="middle" x="809.5" y="-245.8" font-family="Times,serif" font-size="14.00">worst concavity &lt;= 0.191</text>
<text text-anchor="middle" x="809.5" y="-230.8" font-family="Times,serif" font-size="14.00">samples = 137</text>
<text text-anchor="middle" x="809.5" y="-215.8" font-family="Times,serif" font-size="14.00">value = [134, 3]</text>
<text text-anchor="middle" x="809.5" y="-200.8" font-family="Times,serif" font-size="14.00">class = malignant</text>
</g>
<!-- 14&#45;&gt;16 -->
<g id="edge16" class="edge"><title>14&#45;&gt;16</title>
<path fill="none" stroke="black" d="M704.824,-296.884C719.381,-287.304 735.403,-276.761 750.441,-266.864"/>
<polygon fill="black" stroke="black" points="752.734,-269.546 759.163,-261.125 748.886,-263.698 752.734,-269.546"/>
</g>
<!-- 17 -->
<g id="node18" class="node"><title>17</title>
<polygon fill="#399de5" fill-opacity="0.333333" stroke="black" points="884,-157 735,-157 735,-89 884,-89 884,-157"/>
<text text-anchor="middle" x="809.5" y="-141.8" font-family="Times,serif" font-size="14.00">worst texture &lt;= 30.975</text>
<text text-anchor="middle" x="809.5" y="-126.8" font-family="Times,serif" font-size="14.00">samples = 5</text>
<text text-anchor="middle" x="809.5" y="-111.8" font-family="Times,serif" font-size="14.00">value = [2, 3]</text>
<text text-anchor="middle" x="809.5" y="-96.8" font-family="Times,serif" font-size="14.00">class = benign</text>
</g>
<!-- 16&#45;&gt;17 -->
<g id="edge17" class="edge"><title>16&#45;&gt;17</title>
<path fill="none" stroke="black" d="M809.5,-192.884C809.5,-184.778 809.5,-175.982 809.5,-167.472"/>
<polygon fill="black" stroke="black" points="813,-167.299 809.5,-157.299 806,-167.299 813,-167.299"/>
</g>
<!-- 20 -->
<g id="node21" class="node"><title>20</title>
<polygon fill="#e58139" stroke="black" points="1015,-149.5 902,-149.5 902,-96.5 1015,-96.5 1015,-149.5"/>
<text text-anchor="middle" x="958.5" y="-134.3" font-family="Times,serif" font-size="14.00">samples = 132</text>
<text text-anchor="middle" x="958.5" y="-119.3" font-family="Times,serif" font-size="14.00">value = [132, 0]</text>
<text text-anchor="middle" x="958.5" y="-104.3" font-family="Times,serif" font-size="14.00">class = malignant</text>
</g>
<!-- 16&#45;&gt;20 -->
<g id="edge20" class="edge"><title>16&#45;&gt;20</title>
<path fill="none" stroke="black" d="M857.876,-192.884C875.548,-180.786 895.466,-167.151 912.889,-155.224"/>
<polygon fill="black" stroke="black" points="914.946,-158.057 921.221,-149.52 910.992,-152.281 914.946,-158.057"/>
</g>
<!-- 18 -->
<g id="node19" class="node"><title>18</title>
<polygon fill="#399de5" stroke="black" points="857,-53 762,-53 762,-0 857,-0 857,-53"/>
<text text-anchor="middle" x="809.5" y="-37.8" font-family="Times,serif" font-size="14.00">samples = 3</text>
<text text-anchor="middle" x="809.5" y="-22.8" font-family="Times,serif" font-size="14.00">value = [0, 3]</text>
<text text-anchor="middle" x="809.5" y="-7.8" font-family="Times,serif" font-size="14.00">class = benign</text>
</g>
<!-- 17&#45;&gt;18 -->
<g id="edge18" class="edge"><title>17&#45;&gt;18</title>
<path fill="none" stroke="black" d="M809.5,-88.9485C809.5,-80.7153 809.5,-71.848 809.5,-63.4814"/>
<polygon fill="black" stroke="black" points="813,-63.2367 809.5,-53.2367 806,-63.2367 813,-63.2367"/>
</g>
<!-- 19 -->
<g id="node20" class="node"><title>19</title>
<polygon fill="#e58139" stroke="black" points="988,-53 875,-53 875,-0 988,-0 988,-53"/>
<text text-anchor="middle" x="931.5" y="-37.8" font-family="Times,serif" font-size="14.00">samples = 2</text>
<text text-anchor="middle" x="931.5" y="-22.8" font-family="Times,serif" font-size="14.00">value = [2, 0]</text>
<text text-anchor="middle" x="931.5" y="-7.8" font-family="Times,serif" font-size="14.00">class = malignant</text>
</g>
<!-- 17&#45;&gt;19 -->
<g id="edge19" class="edge"><title>17&#45;&gt;19</title>
<path fill="none" stroke="black" d="M852.17,-88.9485C864.452,-79.4346 877.828,-69.074 890.036,-59.6175"/>
<polygon fill="black" stroke="black" points="892.511,-62.1274 898.274,-53.2367 888.225,-56.5934 892.511,-62.1274"/>
</g>
</g>
</svg>